REM Ripping Tool: trurip

FILE "Juuouki (1989)(NEC Avenue)(JP)[req. System Card v1.0].img" BINARY
  TRACK 01 AUDIO
    INDEX 01 00:00:00
  TRACK 02 MODE1/2352
    INDEX 00 00:44:65
    INDEX 01 00:47:65
  TRACK 03 AUDIO
    INDEX 00 01:12:64
    INDEX 01 01:14:64
  TRACK 04 AUDIO
    INDEX 01 01:27:49
  TRACK 05 AUDIO
    INDEX 01 02:05:69
  TRACK 06 AUDIO
    INDEX 01 02:14:60
  TRACK 07 AUDIO
    INDEX 01 04:38:37
  TRACK 08 AUDIO
    INDEX 01 06:08:00
  TRACK 09 AUDIO
    INDEX 01 08:30:22

REM DISC HASHES
REM CRC32 : 2c352025
REM MD5   : ab211f916745193c98d0bea92b3ec022
REM SHA1  : 57357ab42035760c36ee39d771f4e20c93b4d0d2

REM Gap Append Method: Prev [crc32]
REM Trk 01: ccd25d2f
REM Trk 02: d592ed07
REM Trk 03: 8bfe4eda
REM Trk 04: 7287732a
REM Trk 05: 708b32a4
REM Trk 06: f89f9199
REM Trk 07: e01630c0
REM Trk 08: 57450fa0
REM Trk 09: ffddb59f

REM Gap Append Method: Prev [md5]
REM Trk 01: 7938d9aa88f644b60389fa8246f2052e
REM Trk 02: ae8e324efd54718840b33d2a2170c692
REM Trk 03: c368a0f248acd8eae4f758148732defb
REM Trk 04: acb8ebb9812f83e0173acfcaf9850989
REM Trk 05: c7107030079e88d9f7876c87ee111f56
REM Trk 06: 00baf20db47be7864567d3209f7ef55d
REM Trk 07: 5ed9fcbf7b548ee8d8520d76d9931877
REM Trk 08: 184473626cd2c778bffc9639cd089c0b
REM Trk 09: 7ac153dea46f393404095fd960261508

REM Gap Append Method: Prev [sha1]
REM Trk 01: 0fc7f8840f23f43ebfb7041f71427c165f368105
REM Trk 02: 9cbadb39a8967d104a886308d76a44ef702acfca
REM Trk 03: ec2457f1969f2372dc7fe29a71659e386c1618c6
REM Trk 04: 1fb1b1acfc73135388d61bc2dda2a8ee722a4098
REM Trk 05: c5100aa2cf70c05373c99cadf6f4e12f435edd92
REM Trk 06: b9389a20d8cd471ef28575196fba70fddb581b12
REM Trk 07: 71a4e4f519f641889dbf1cbc641af6399462e421
REM Trk 08: a888a6ad266bbccfa53ca12ceba5eeb0e3a20388
REM Trk 09: cda9d95c85c7f11b0a2d05c5455112e493ad9b4b

REM Gap Append Method: None [crc32]
REM Trk 01: b979500c
REM Trk 02: a159750a
REM Trk 03: 8bfe4eda
REM Trk 04: 7287732a
REM Trk 05: 708b32a4
REM Trk 06: f89f9199
REM Trk 07: e01630c0
REM Trk 08: 57450fa0
REM Trk 09: ffddb59f
REM Gap 02: 16e86594
REM Gap 03: 7abe247f

REM Gap Append Method: None [md5]
REM Trk 01: a25a2c129b7100092cc40e9b6e176a63
REM Trk 02: 2161f5c50119a3a2eb16fa5ef7cfac3c
REM Trk 03: c368a0f248acd8eae4f758148732defb
REM Trk 04: acb8ebb9812f83e0173acfcaf9850989
REM Trk 05: c7107030079e88d9f7876c87ee111f56
REM Trk 06: 00baf20db47be7864567d3209f7ef55d
REM Trk 07: 5ed9fcbf7b548ee8d8520d76d9931877
REM Trk 08: 184473626cd2c778bffc9639cd089c0b
REM Trk 09: 7ac153dea46f393404095fd960261508
REM Gap 02: fbd314ec9876f082e173fbb5baf092aa
REM Gap 03: 9df204fbc98bb8965081cb30a89715fc

REM Gap Append Method: None [sha1]
REM Trk 01: 9ac3f1a11d434d186466917f1c7955bf7670c910
REM Trk 02: b9fa772413d65edf388dbe45c689fc4a107ad884
REM Trk 03: ec2457f1969f2372dc7fe29a71659e386c1618c6
REM Trk 04: 1fb1b1acfc73135388d61bc2dda2a8ee722a4098
REM Trk 05: c5100aa2cf70c05373c99cadf6f4e12f435edd92
REM Trk 06: b9389a20d8cd471ef28575196fba70fddb581b12
REM Trk 07: 71a4e4f519f641889dbf1cbc641af6399462e421
REM Trk 08: a888a6ad266bbccfa53ca12ceba5eeb0e3a20388
REM Trk 09: cda9d95c85c7f11b0a2d05c5455112e493ad9b4b
REM Gap 02: 08a9af7bae10b281a8edaad6e9ea6cd1646d0ce0
REM Gap 03: cbe29e0bd725ef1194f8c47619dd42078e841de2

REM Gap Append Method: Next [crc32]
REM Trk 01: b979500c
REM Trk 02: 972b372e
REM Trk 03: ef04b880
REM Trk 04: 7287732a
REM Trk 05: 708b32a4
REM Trk 06: f89f9199
REM Trk 07: e01630c0
REM Trk 08: 57450fa0
REM Trk 09: ffddb59f

REM Gap Append Method: Next [md5]
REM Trk 01: a25a2c129b7100092cc40e9b6e176a63
REM Trk 02: 2274798b88776037313686c006efb4e2
REM Trk 03: acd4816ae50b6440f3061a7779e4ca86
REM Trk 04: acb8ebb9812f83e0173acfcaf9850989
REM Trk 05: c7107030079e88d9f7876c87ee111f56
REM Trk 06: 00baf20db47be7864567d3209f7ef55d
REM Trk 07: 5ed9fcbf7b548ee8d8520d76d9931877
REM Trk 08: 184473626cd2c778bffc9639cd089c0b
REM Trk 09: 7ac153dea46f393404095fd960261508

REM Gap Append Method: Next [sha1]
REM Trk 01: 9ac3f1a11d434d186466917f1c7955bf7670c910
REM Trk 02: 3968e958cc06860d54b86058f5148f1058d61b92
REM Trk 03: e5a339fe9f6c5bb036a68cf57ddde13d157464f0
REM Trk 04: 1fb1b1acfc73135388d61bc2dda2a8ee722a4098
REM Trk 05: c5100aa2cf70c05373c99cadf6f4e12f435edd92
REM Trk 06: b9389a20d8cd471ef28575196fba70fddb581b12
REM Trk 07: 71a4e4f519f641889dbf1cbc641af6399462e421
REM Trk 08: a888a6ad266bbccfa53ca12ceba5eeb0e3a20388
REM Trk 09: cda9d95c85c7f11b0a2d05c5455112e493ad9b4b

